<svg xmlns="http://www.w3.org/2000/svg"
     width="0.333333in" height="0.166667in"
     viewBox="0 0 100 50">
  <path id="パス"
        fill="none" stroke="black" stroke-width="1"
        d="M 40.68,9.55
           C 40.55,10.15 40.28,10.73 39.86,11.28
             39.46,11.82 38.98,12.31 38.44,12.75
             37.90,13.19 37.32,13.58 36.69,13.92
             36.07,14.27 35.59,14.51 35.24,14.64
             35.10,14.95 34.93,15.45 34.71,16.12
             34.49,16.80 34.29,17.56 34.11,18.39
             33.85,19.48 33.59,20.55 33.32,21.61
             33.05,22.67 32.88,23.34 32.80,23.61
             33.10,23.60 33.91,23.57 35.24,23.52
             36.56,23.46 37.95,23.42 39.39,23.38
             40.84,23.34 42.32,23.30 43.85,23.28
             45.37,23.25 46.65,23.23 47.69,23.23
             48.15,21.45 48.74,19.68 49.47,17.94
             50.20,16.20 51.00,14.71 51.88,13.48
             52.76,12.25 53.73,11.29 54.77,10.61
             55.81,9.92 56.91,9.58 58.07,9.58
             58.26,9.58 58.50,9.59 58.79,9.62
             59.07,9.66 59.38,9.73 59.69,9.84
             60.00,9.96 60.30,10.17 60.60,10.47
             60.89,10.76 60.97,11.20 60.85,11.77
             60.82,11.90 60.78,12.02 60.74,12.11
             60.70,12.20 60.63,12.32 60.55,12.45
             60.13,12.95 59.66,13.20 59.13,13.20
             58.86,13.20 58.66,13.17 58.55,13.09
             58.43,13.02 58.36,12.98 58.32,12.97
             58.29,12.95 58.23,12.93 58.16,12.92
             58.10,12.90 57.98,12.89 57.80,12.89
             57.65,12.89 57.46,12.92 57.21,12.98
             56.96,13.04 56.65,13.18 56.30,13.41
             55.96,13.62 55.55,13.98 55.10,14.45
             54.65,14.93 54.18,15.59 53.71,16.44
             53.23,17.28 52.73,18.35 52.22,19.64
             51.71,20.92 51.32,22.13 51.05,23.27
             51.23,23.27 51.75,23.27 52.61,23.28
             53.49,23.29 54.35,23.31 55.19,23.34
             55.73,23.34 56.12,23.54 56.36,23.94
             56.61,24.32 56.70,24.75 56.61,25.20
             56.51,25.63 56.29,25.98 55.94,26.23
             55.61,26.50 55.24,26.62 54.85,26.62
             54.57,26.62 54.29,26.62 53.97,26.62
             53.67,26.62 53.32,26.61 52.93,26.59
             52.53,26.57 52.06,26.56 51.52,26.55
             50.98,26.54 50.45,26.39 49.93,26.09
             50.21,26.15 50.34,26.28 50.30,26.50
             50.26,26.71 50.21,26.93 50.16,27.17
             49.87,28.63 49.66,29.95 49.54,31.11
             49.42,32.28 49.36,33.30 49.35,34.19
             49.34,35.07 49.37,35.82 49.44,36.44
             49.51,37.04 49.59,37.54 49.68,37.92
             49.77,38.31 49.85,38.59 49.91,38.77
             49.97,38.93 50.00,39.02 50.00,39.02
             50.13,39.32 50.16,39.64 50.10,39.97
             50.01,40.38 49.80,40.72 49.46,41.02
             49.12,41.30 48.74,41.45 48.30,41.45
             47.65,41.45 47.29,41.16 47.21,40.58
             47.03,40.60 46.84,40.33 46.63,39.77
             46.43,39.20 46.27,38.37 46.14,37.25
             46.03,36.12 46.00,34.71 46.07,33.00
             46.13,31.29 46.40,29.23 46.88,26.81
             46.88,26.81 46.94,26.53 46.94,26.53
             46.14,26.53 44.97,26.55 43.44,26.58
             41.91,26.60 40.42,26.63 38.97,26.67
             37.54,26.71 36.15,26.76 34.82,26.81
             33.48,26.86 32.46,26.89 31.75,26.92
             31.23,28.48 30.52,30.12 29.61,31.86
             28.71,33.60 27.59,35.14 26.25,36.48
             24.93,37.82 23.36,38.88 21.54,39.66
             19.71,40.44 17.60,40.83 15.21,40.83
             13.93,40.83 12.73,40.69 11.58,40.42
             10.43,40.15 9.39,39.77 8.44,39.28
             7.50,38.78 6.67,38.18 5.94,37.47
             5.21,36.75 4.65,35.95 4.27,35.08
             4.15,34.80 4.12,34.50 4.18,34.19
             4.26,33.77 4.46,33.42 4.80,33.12
             5.13,32.82 5.52,32.67 5.97,32.67
             6.25,32.67 6.52,32.75 6.77,32.89
             7.03,33.04 7.23,33.25 7.36,33.52
             7.61,34.11 7.98,34.65 8.47,35.12
             8.96,35.59 9.56,36.01 10.27,36.38
             10.99,36.73 11.79,37.01 12.68,37.22
             13.57,37.42 14.52,37.52 15.54,37.52
             17.43,37.52 19.07,37.23 20.46,36.64
             21.85,36.05 23.05,35.23 24.07,34.20
             25.09,33.16 25.96,31.93 26.69,30.50
             27.43,29.07 27.95,27.93 28.24,27.08
             27.77,27.11 27.14,27.15 26.36,27.19
             25.58,27.23 25.17,27.25 25.13,27.25
             24.70,27.25 24.30,27.09 23.94,26.78
             23.59,26.46 23.47,26.02 23.60,25.45
             23.67,25.06 23.86,24.72 24.16,24.44
             24.47,24.15 24.85,23.98 25.29,23.94
             25.34,23.94 25.77,23.92 26.58,23.88
             27.40,23.84 28.32,23.79 29.32,23.73
             29.51,23.09 29.75,22.23 30.04,21.17
             30.32,20.10 30.59,19.02 30.85,17.94
             31.01,17.22 31.20,16.53 31.41,15.86
             31.63,15.20 31.98,14.81 32.46,14.72
             32.51,15.12 32.32,15.34 31.88,15.39
             31.45,15.45 31.04,15.47 30.63,15.47
             29.37,15.47 28.16,15.37 27.00,15.17
             25.86,14.98 24.72,14.77 23.60,14.55
             22.48,14.32 21.36,14.11 20.24,13.92
             19.12,13.73 17.97,13.64 16.79,13.64
             15.84,13.64 14.94,13.74 14.10,13.94
             13.25,14.14 12.50,14.43 11.85,14.81
             11.19,15.20 10.64,15.67 10.21,16.23
             9.78,16.80 9.49,17.46 9.35,18.23
             9.25,18.67 9.25,19.06 9.33,19.39
             9.43,19.71 9.54,19.99 9.69,20.22
             9.84,20.44 9.99,20.62 10.14,20.75
             10.31,20.89 10.43,20.98 10.50,21.03
             10.98,21.45 11.16,21.96 11.05,22.56
             10.96,22.97 10.76,23.32 10.44,23.61
             10.12,23.89 9.74,24.03 9.32,24.03
             9.10,24.03 8.90,24.00 8.74,23.92
             8.58,23.85 8.46,23.78 8.36,23.72
             8.02,23.49 7.68,23.20 7.35,22.84
             7.02,22.48 6.74,22.05 6.49,21.56
             6.25,21.06 6.08,20.51 5.99,19.89
             5.89,19.28 5.92,18.61 6.07,17.89
             6.34,16.56 6.86,15.41 7.63,14.44
             8.41,13.47 9.32,12.68 10.36,12.08
             11.40,11.48 12.51,11.04 13.68,10.77
             14.85,10.48 16.00,10.34 17.13,10.34
             18.37,10.34 19.57,10.45 20.72,10.66
             21.88,10.86 23.02,11.07 24.14,11.30
             25.28,11.53 26.40,11.74 27.52,11.94
             28.63,12.12 29.78,12.22 30.96,12.22
             31.43,12.22 31.85,12.21 32.21,12.19
             32.57,12.16 32.79,12.12 32.86,12.09
             33.18,11.43 33.59,10.76 34.07,10.09
             34.54,9.43 35.04,8.87 35.54,8.42
             36.04,7.96 36.54,7.62 37.05,7.38
             37.56,7.14 38.04,7.02 38.50,7.02
             39.22,7.02 39.79,7.26 40.22,7.73
             40.66,8.21 40.81,8.82 40.68,9.55 Z
           M 38.11,10.22
           C 38.11,10.05 38.07,10.05 37.97,10.20
             37.89,10.35 37.73,10.52 37.50,10.72
             37.29,10.92 37.04,11.18 36.77,11.52
             36.51,11.84 36.21,11.90 35.88,11.70
             35.65,11.38 35.71,11.08 36.07,10.80
             36.42,10.51 36.71,10.23 36.93,9.97
             37.14,9.70 37.39,9.55 37.68,9.52
             37.96,9.48 38.11,9.72 38.11,10.22 Z
           M 58.57,38.69
           C 58.46,39.21 58.20,39.65 57.79,40.00
             57.37,40.34 56.90,40.52 56.38,40.52
             55.76,40.52 55.29,40.30 54.96,39.88
             54.63,39.44 54.53,38.94 54.64,38.38
             54.73,37.87 54.98,37.44 55.39,37.09
             55.82,36.74 56.30,36.56 56.83,36.56
             57.43,36.56 57.90,36.78 58.22,37.22
             58.54,37.65 58.66,38.14 58.57,38.69 Z
           M 103.04,17.94
           C 102.88,18.28 102.65,18.56 102.35,18.77
             102.05,18.98 101.73,19.08 101.38,19.08
             100.84,19.08 100.42,18.89 100.13,18.52
             99.85,18.14 99.75,17.72 99.85,17.25
             99.90,17.00 99.96,16.78 100.04,16.58
             100.12,16.38 100.18,16.21 100.21,16.06
             100.36,15.28 100.26,14.58 99.89,13.95
             99.54,13.33 98.91,12.78 98.00,12.30
             97.10,11.82 95.90,11.45 94.41,11.17
             92.93,10.89 91.23,10.75 89.30,10.75
             87.82,10.75 86.31,10.85 84.77,11.05
             83.23,11.23 81.73,11.52 80.27,11.89
             78.82,12.26 77.45,12.71 76.14,13.27
             74.85,13.81 73.71,14.43 72.71,15.14
             71.71,15.84 70.90,16.60 70.27,17.42
             69.63,18.23 69.22,19.12 69.04,20.06
             68.90,20.73 68.92,21.31 69.10,21.80
             69.29,22.29 69.60,22.73 70.05,23.12
             70.50,23.52 71.08,23.88 71.80,24.19
             72.52,24.49 73.33,24.75 74.24,24.97
             75.15,25.18 76.13,25.36 77.16,25.50
             78.20,25.64 79.25,25.75 80.32,25.84
             80.32,25.84 83.41,26.11 83.41,26.11
             84.97,26.25 86.37,26.39 87.60,26.55
             88.84,26.70 89.93,26.90 90.86,27.14
             92.54,27.59 93.75,28.27 94.50,29.19
             95.26,30.11 95.49,31.31 95.19,32.81
             94.92,34.16 94.32,35.34 93.38,36.34
             92.45,37.36 91.32,38.19 89.97,38.84
             88.64,39.50 87.14,39.99 85.49,40.31
             83.84,40.63 82.13,40.80 80.35,40.80
             78.40,40.80 76.71,40.66 75.29,40.41
             73.86,40.14 72.67,39.86 71.72,39.53
             70.77,39.21 70.04,38.90 69.54,38.61
             69.02,38.32 68.82,38.05 68.94,37.81
             68.26,37.71 68.00,37.30 68.14,36.58
             68.25,36.14 68.48,35.79 68.83,35.52
             69.18,35.25 69.55,35.11 69.94,35.11
             70.29,35.11 70.43,35.43 70.36,36.06
             70.52,35.51 70.82,35.37 71.27,35.64
             71.71,35.90 72.34,36.17 73.14,36.44
             73.95,36.71 74.97,36.96 76.22,37.19
             77.47,37.41 78.96,37.52 80.68,37.52
             82.38,37.52 83.91,37.38 85.25,37.11
             86.60,36.84 87.74,36.47 88.68,36.00
             89.62,35.52 90.36,34.99 90.88,34.41
             91.40,33.81 91.72,33.19 91.85,32.53
             91.91,32.19 91.91,31.91 91.85,31.70
             91.79,31.50 91.68,31.31 91.52,31.16
             91.36,31.00 91.13,30.85 90.82,30.70
             90.51,30.56 90.15,30.43 89.72,30.31
             89.25,30.19 88.74,30.08 88.19,29.98
             87.64,29.88 87.06,29.80 86.46,29.73
             85.86,29.67 85.25,29.62 84.63,29.56
             84.00,29.51 83.39,29.45 82.79,29.39
             82.79,29.39 79.68,29.12 79.68,29.12
             77.18,28.92 75.02,28.59 73.19,28.14
             71.37,27.70 69.85,27.10 68.63,26.36
             67.42,25.61 66.57,24.68 66.07,23.58
             65.57,22.46 65.46,21.18 65.74,19.73
             66.03,18.33 66.60,17.05 67.46,15.89
             68.32,14.73 69.37,13.69 70.61,12.78
             71.85,11.87 73.23,11.08 74.75,10.42
             76.27,9.77 77.86,9.23 79.52,8.80
             81.18,8.36 82.86,8.03 84.58,7.81
             86.30,7.59 87.98,7.48 89.61,7.48
             91.64,7.48 93.39,7.61 94.86,7.86
             96.34,8.11 97.60,8.44 98.64,8.84
             99.68,9.24 100.53,9.71 101.18,10.25
             101.82,10.78 102.32,11.32 102.69,11.86
             103.55,13.20 103.82,14.71 103.49,16.39
             103.38,16.92 103.23,17.44 103.04,17.94 Z" />
</svg>